<svg version="1.0" xmlns="http://www.w3.org/2000/svg"
 width="1408.000000pt" height="608.000000pt" viewBox="0 0 1408.000000 608.000000"
 preserveAspectRatio="xMidYMid meet">

<g transform="translate(0.000000,608.000000) scale(0.100000,-0.100000)" stroke="none">
<path d="M0 4930 l0 -1140 130 0 130 0 0 677 c0 661 0 678 20 719 26 53 63 71
170 85 44 5 92 14 105 19 l25 10 0 -755 0 -755 135 0 135 0 0 1141 0 1142 -61
-6 c-83 -7 -144 -46 -178 -112 -25 -48 -26 -55 -29 -285 -3 -174 -7 -242 -18
-261 -22 -43 -74 -69 -161 -79 -43 -5 -93 -12 -111 -16 l-32 -6 0 288 c0 181
-4 304 -11 329 -23 82 -115 145 -211 145 l-38 0 0 -1140z"/>
<path d="M5812 5084 l3 -989 23 -57 c30 -74 108 -160 175 -192 147 -71 289
-73 433 -5 81 38 139 96 177 177 l32 67 3 448 c3 503 1 529 -64 624 -39 57
-76 88 -142 122 l-44 22 51 25 c71 36 128 95 164 172 29 61 32 75 32 167 0
114 -17 174 -72 249 -54 75 -175 139 -286 152 l-57 7 0 -31 c0 -25 5 -31 28
-37 43 -9 90 -42 112 -77 18 -30 20 -51 20 -251 0 -237 -5 -266 -55 -305 -15
-12 -45 -27 -66 -32 -34 -9 -39 -15 -39 -39 0 -25 5 -30 44 -41 50 -14 78 -36
101 -80 13 -26 15 -107 13 -629 -3 -588 -3 -600 -24 -628 -65 -89 -212 -89
-278 0 -21 28 -21 32 -26 1015 -4 704 -8 994 -16 1012 -15 32 -61 78 -98 97
-16 8 -56 18 -88 21 l-59 5 3 -989z"/>
<path d="M8242 5084 l3 -989 23 -57 c30 -74 108 -160 175 -192 147 -71 289
-73 433 -5 123 58 199 170 211 308 l6 71 -44 0 c-49 0 -121 -29 -157 -63 -35
-32 -49 -64 -61 -142 -12 -80 -32 -112 -87 -140 -75 -38 -169 -18 -218 48 -21
28 -21 32 -26 1015 -4 704 -8 994 -16 1012 -15 32 -61 78 -98 97 -16 8 -56 18
-88 21 l-59 5 3 -989z"/>
<path d="M9190 4930 l0 -1140 130 0 130 0 0 1048 c0 736 -3 1059 -11 1087 -23
82 -115 145 -211 145 l-38 0 0 -1140z"/>
<path d="M10936 6055 c-58 -21 -88 -46 -116 -101 l-25 -48 -5 -982 c-5 -976
-5 -983 -26 -1011 -26 -35 -112 -66 -159 -57 -47 8 -92 39 -115 76 -19 32 -20
52 -20 621 0 628 0 628 50 674 12 12 41 26 66 33 40 11 44 16 44 43 0 30 0 30
-47 24 -179 -22 -307 -119 -353 -266 -19 -59 -20 -92 -20 -495 0 -477 3 -507
62 -598 80 -125 265 -198 431 -170 144 25 258 101 313 209 l29 58 3 1003 2
1002 -37 0 c-21 -1 -56 -7 -77 -15z"/>
<path d="M7008 5511 c-60 -12 -113 -54 -142 -112 -14 -29 -26 -63 -26 -76 0
-19 5 -23 33 -23 23 0 35 6 42 22 12 26 28 35 78 43 58 9 98 51 104 108 6 47
5 47 -23 46 -16 -1 -46 -5 -66 -8z"/>
<path d="M8630 5483 c0 -5 7 -38 14 -74 41 -192 173 -307 363 -317 l83 -5 0
29 c0 91 -60 174 -143 199 -28 8 -62 15 -76 15 -82 0 -144 45 -162 117 -11 40
-14 43 -45 43 -19 0 -34 -3 -34 -7z"/>
<path d="M2382 5325 c-144 -32 -247 -107 -298 -218 l-29 -62 -3 -967 -2 -968
130 0 130 0 2 1034 c3 1027 3 1035 24 1063 46 63 145 83 221 45 78 -40 74 -10
71 -698 -3 -596 -4 -612 -23 -634 -25 -27 -87 -60 -115 -60 -16 0 -20 -6 -20
-31 l0 -32 63 6 c167 16 304 122 350 272 9 29 12 164 12 490 0 506 -1 515 -74
611 -90 120 -280 184 -439 149z"/>
<path d="M3402 5325 c-144 -32 -247 -107 -298 -218 l-29 -62 -3 -967 -2 -968
130 0 130 0 2 1034 c3 1027 3 1035 24 1063 46 63 145 83 221 45 78 -40 74 -10
71 -698 -3 -596 -4 -612 -23 -634 -25 -27 -87 -60 -115 -60 -16 0 -20 -6 -20
-31 l0 -32 63 6 c167 16 304 122 350 272 9 29 12 164 12 490 0 506 -1 515 -74
611 -90 120 -280 184 -439 149z"/>
<path d="M1315 5311 c-109 -32 -177 -76 -226 -148 -40 -57 -69 -149 -69 -215
l0 -51 54 6 c82 8 151 49 181 108 8 14 17 50 20 80 4 30 16 73 26 96 43 90
179 107 262 33 l32 -28 3 -619 2 -619 -23 -35 c-27 -41 -110 -73 -162 -63 -47
8 -92 39 -115 76 -19 31 -20 51 -20 348 0 280 2 319 18 350 18 37 82 80 120
80 19 0 22 5 22 36 0 33 -2 35 -27 30 -16 -3 -46 -8 -68 -12 -68 -11 -167 -62
-217 -111 -26 -26 -59 -73 -75 -107 -26 -58 -28 -70 -31 -232 -4 -195 8 -266
59 -346 81 -125 266 -198 432 -170 144 25 258 101 313 209 l29 58 0 495 0 495
-29 58 c-86 169 -310 256 -511 198z"/>
<path d="M4080 4748 c0 -633 3 -674 55 -762 53 -90 153 -155 280 -182 92 -20
97 -19 93 18 -2 27 -8 33 -33 38 -52 11 -88 34 -109 70 -20 34 -21 53 -26 650
-5 661 -4 644 -57 692 -33 30 -107 58 -155 58 l-48 0 0 -582z"/>
<path d="M4782 5304 c-39 -19 -59 -38 -80 -72 l-27 -47 -5 -985 c-6 -1111 1
-1022 -83 -1061 -54 -24 -110 -24 -162 1 -51 25 -75 65 -82 138 -11 109 -72
179 -174 201 -93 20 -92 21 -84 -56 13 -128 57 -213 142 -278 l46 -35 232 0
232 0 39 29 c46 32 88 80 111 125 43 82 43 86 43 1099 l0 967 -48 0 c-32 0
-66 -9 -100 -26z"/>
<path d="M6981 5317 c-50 -16 -117 -84 -130 -132 -7 -27 -11 -256 -11 -717 l0
-678 130 0 130 0 0 770 0 770 -42 -1 c-24 -1 -58 -6 -77 -12z"/>
<path d="M7310 4560 l0 -770 130 0 130 0 0 677 c0 654 1 678 20 718 34 71 123
102 204 71 67 -26 85 -52 100 -142 15 -94 23 -112 76 -157 41 -35 103 -57 159
-57 36 0 37 7 21 104 -32 194 -203 326 -422 326 -54 0 -156 -23 -198 -45 -22
-11 -28 -11 -48 6 -29 23 -84 39 -134 39 l-38 0 0 -770z"/>
<path d="M9610 5302 c0 -25 5 -29 45 -40 24 -6 59 -25 77 -41 l33 -29 3 -701
2 -701 136 0 135 0 -3 618 -3 617 -23 57 c-30 74 -108 160 -175 192 -58 28
-157 56 -199 56 -24 0 -28 -4 -28 -28z"/>
<path d="M11525 5311 c-109 -32 -177 -76 -226 -148 -40 -57 -69 -149 -69 -215
l0 -51 54 6 c82 8 151 49 181 108 8 14 17 50 20 80 4 30 16 73 26 96 43 90
179 107 262 33 l32 -28 3 -619 2 -619 -23 -35 c-27 -41 -110 -73 -162 -63 -47
8 -92 39 -115 76 -19 31 -20 51 -20 348 0 280 2 319 18 350 18 37 82 80 120
80 19 0 22 5 22 36 0 33 -2 35 -27 30 -16 -3 -46 -8 -68 -12 -68 -11 -167 -62
-217 -111 -26 -26 -59 -73 -75 -107 -26 -58 -28 -70 -31 -232 -4 -195 8 -266
59 -346 81 -125 266 -198 432 -170 144 25 258 101 313 209 l29 58 0 495 0 495
-29 58 c-86 169 -310 256 -511 198z"/>
<path d="M12260 4748 c0 -633 3 -674 55 -762 53 -90 153 -155 280 -182 92 -20
97 -19 93 18 -2 27 -8 33 -33 38 -52 11 -88 34 -109 70 -20 34 -21 53 -26 650
-5 661 -4 644 -57 692 -33 30 -107 58 -155 58 l-48 0 0 -582z"/>
<path d="M12962 5304 c-39 -19 -59 -38 -80 -72 l-27 -47 -5 -985 c-6 -1111 1
-1022 -83 -1061 -54 -24 -110 -24 -162 1 -51 25 -75 65 -82 138 -11 109 -72
179 -174 201 -93 20 -92 21 -84 -56 13 -128 57 -213 142 -278 l46 -35 232 0
232 0 39 29 c46 32 88 80 111 125 43 82 43 86 43 1099 l0 967 -48 0 c-32 0
-66 -9 -100 -26z"/>
<path d="M303 2945 c-150 -41 -243 -125 -285 -257 -15 -51 -18 -95 -18 -307 0
-281 8 -333 66 -418 62 -90 178 -152 316 -168 79 -10 142 -33 169 -61 l24 -26
3 -432 3 -432 -23 -35 c-28 -41 -110 -73 -163 -63 -82 15 -129 70 -138 165 -7
66 -23 103 -59 136 -35 33 -108 63 -155 63 l-43 0 0 -43 c0 -106 55 -228 130
-287 95 -75 241 -112 363 -92 144 25 258 101 313 209 l29 58 0 310 0 310 -28
55 c-67 130 -176 197 -359 220 -91 11 -133 31 -165 80 -23 33 -23 34 -23 438
0 388 1 408 20 448 36 72 131 102 213 66 58 -26 83 -65 92 -146 14 -122 83
-191 202 -203 l56 -6 -5 79 c-6 101 -39 174 -108 238 -107 100 -280 140 -427
101z"/>
<path d="M3060 1820 l0 -1140 130 0 130 0 0 1048 c0 736 -3 1059 -11 1087 -23
82 -115 145 -211 145 l-38 0 0 -1140z"/>
<path d="M6260 1992 c0 -1066 -2 -1036 62 -1134 80 -125 265 -198 431 -170
144 25 258 101 313 209 l29 58 3 1003 2 1002 -42 0 c-45 0 -119 -29 -151 -58
-11 -9 -29 -35 -41 -57 -21 -40 -21 -42 -26 -1027 -5 -980 -5 -987 -26 -1015
-26 -35 -112 -66 -159 -57 -44 8 -90 37 -112 71 -17 26 -18 84 -23 1013 -5
909 -6 987 -22 1017 -37 66 -120 113 -202 113 l-36 0 0 -968z"/>
<path d="M8310 1820 l0 -1140 130 0 130 0 0 1048 c0 736 -3 1059 -11 1087 -23
82 -115 145 -211 145 l-38 0 0 -1140z"/>
<path d="M10772 1974 l3 -989 23 -57 c30 -74 108 -160 175 -192 147 -71 289
-73 433 -5 123 58 199 170 211 308 l6 71 -44 0 c-49 0 -121 -29 -157 -63 -35
-32 -49 -64 -61 -142 -12 -80 -32 -112 -87 -140 -75 -38 -169 -18 -218 48 -21
28 -21 32 -26 1015 -4 704 -8 994 -16 1012 -15 32 -61 78 -98 97 -16 8 -56 18
-88 21 l-59 5 3 -989z"/>
<path d="M4248 2401 c-60 -12 -113 -54 -142 -112 -14 -29 -26 -63 -26 -76 0
-19 5 -23 33 -23 23 0 35 6 42 22 12 26 28 35 78 43 58 9 98 51 104 108 6 47
5 47 -23 46 -16 -1 -46 -5 -66 -8z"/>
<path d="M11888 2401 c-60 -12 -113 -54 -142 -112 -14 -29 -26 -63 -26 -76 0
-19 5 -23 33 -23 23 0 35 6 42 22 12 26 28 35 78 43 58 9 98 51 104 108 6 47
5 47 -23 46 -16 -1 -46 -5 -66 -8z"/>
<path d="M11160 2373 c0 -5 7 -38 14 -74 41 -192 173 -307 363 -317 l83 -5 0
29 c0 91 -60 174 -143 199 -28 8 -62 15 -76 15 -82 0 -144 45 -162 117 -11 40
-14 43 -45 43 -19 0 -34 -3 -34 -7z"/>
<path d="M2372 2215 c-144 -32 -247 -107 -298 -218 l-29 -62 -3 -967 -2 -968
130 0 130 0 2 1034 c3 1027 3 1035 24 1063 46 63 145 83 221 45 78 -40 74 -10
71 -698 -3 -596 -4 -612 -23 -634 -25 -27 -87 -60 -115 -60 -16 0 -20 -6 -20
-31 l0 -32 63 6 c167 16 304 122 350 272 9 29 12 164 12 490 0 506 -1 515 -74
611 -90 120 -280 184 -439 149z"/>
<path d="M1323 2206 c-130 -32 -239 -121 -285 -234 -23 -57 -23 -59 -23 -522
0 -463 0 -465 23 -522 30 -74 108 -160 175 -192 147 -71 289 -73 433 -5 81 38
139 96 177 177 l32 67 3 448 c3 382 1 457 -13 510 -17 69 -70 153 -118 190
-110 83 -267 116 -404 83z m199 -70 c20 -10 44 -33 57 -56 l21 -39 -2 -600
c-3 -588 -3 -600 -24 -628 -65 -89 -212 -89 -278 0 -21 28 -21 37 -24 590 -2
309 0 586 3 615 14 116 133 172 247 118z"/>
<path d="M3480 2192 c0 -25 5 -29 45 -40 24 -6 59 -25 77 -41 l33 -29 3 -701
2 -701 136 0 135 0 -3 618 -3 617 -23 57 c-30 74 -108 160 -175 192 -58 28
-157 56 -199 56 -24 0 -28 -4 -28 -28z"/>
<path d="M4221 2207 c-50 -16 -117 -84 -130 -132 -7 -27 -11 -256 -11 -717 l0
-678 130 0 130 0 0 770 0 770 -42 -1 c-24 -1 -58 -6 -77 -12z"/>
<path d="M4845 2201 c-109 -32 -177 -76 -226 -148 -40 -57 -69 -149 -69 -215
l0 -51 54 6 c82 8 151 49 181 108 8 14 17 50 20 80 4 30 16 73 26 96 43 90
179 107 262 33 l32 -28 3 -619 2 -619 -23 -35 c-27 -41 -110 -73 -162 -63 -47
8 -92 39 -115 76 -19 31 -20 51 -20 348 0 280 2 319 18 350 18 37 82 80 120
80 19 0 22 5 22 36 0 33 -2 35 -27 30 -16 -3 -46 -8 -68 -12 -68 -11 -167 -62
-217 -111 -26 -26 -59 -73 -75 -107 -26 -58 -28 -70 -31 -232 -4 -195 8 -266
59 -346 81 -125 266 -198 432 -170 144 25 258 101 313 209 l29 58 0 495 0 495
-29 58 c-86 169 -310 256 -511 198z"/>
<path d="M7575 2201 c-109 -32 -177 -76 -226 -148 -40 -57 -69 -149 -69 -215
l0 -51 54 6 c82 8 151 49 181 108 8 14 17 50 20 80 4 30 16 73 26 96 43 90
179 107 262 33 l32 -28 3 -619 2 -619 -23 -35 c-27 -41 -110 -73 -162 -63 -47
8 -92 39 -115 76 -19 31 -20 51 -20 348 0 280 2 319 18 350 18 37 82 80 120
80 19 0 22 5 22 36 0 33 -2 35 -27 30 -16 -3 -46 -8 -68 -12 -68 -11 -167 -62
-217 -111 -26 -26 -59 -73 -75 -107 -26 -58 -28 -70 -31 -232 -4 -195 8 -266
59 -346 81 -125 266 -198 432 -170 144 25 258 101 313 209 l29 58 0 495 0 495
-29 58 c-86 169 -310 256 -511 198z"/>
<path d="M9051 2204 c-134 -36 -219 -102 -267 -207 l-29 -62 -3 -464 c-3 -513
-2 -524 60 -617 85 -126 275 -197 440 -164 199 39 322 166 335 346 l6 74 -44
0 c-46 0 -120 -29 -152 -58 -31 -28 -54 -83 -65 -156 -9 -56 -17 -75 -43 -102
-59 -61 -154 -66 -230 -13 -54 38 -54 36 -54 674 0 575 1 591 20 625 59 100
233 100 287 0 16 -31 18 -60 18 -260 0 -207 -2 -228 -20 -258 -22 -35 -69 -68
-112 -77 -23 -5 -28 -12 -28 -36 0 -35 16 -37 105 -14 142 37 227 101 281 211
27 55 29 68 29 174 0 104 -3 120 -26 170 -37 77 -87 131 -156 167 -113 60
-240 77 -352 47z"/>
<path d="M9730 1450 l0 -770 130 0 130 0 0 677 c0 654 1 678 20 718 22 46 59
71 119 81 50 8 117 -15 152 -52 l24 -26 3 -699 2 -699 135 0 135 0 0 578 c0
327 -4 603 -10 636 -32 194 -203 326 -422 326 -54 0 -156 -23 -198 -45 -22
-11 -28 -11 -48 6 -29 23 -84 39 -134 39 l-38 0 0 -770z"/>
<path d="M11861 2207 c-50 -16 -117 -84 -130 -132 -7 -27 -11 -256 -11 -717
l0 -678 130 0 130 0 0 770 0 770 -42 -1 c-24 -1 -58 -6 -77 -12z"/>
<path d="M12190 1450 l0 -770 130 0 130 0 0 677 c0 654 1 678 20 718 22 46 59
71 119 81 50 8 117 -15 152 -52 l24 -26 3 -699 2 -699 135 0 135 0 0 578 c0
327 -4 603 -10 636 -32 194 -203 326 -422 326 -54 0 -156 -23 -198 -45 -22
-11 -28 -11 -48 6 -29 23 -84 39 -134 39 l-38 0 0 -770z"/>
<path d="M13531 2204 c-134 -36 -219 -102 -267 -207 l-29 -62 -3 -464 c-3
-513 -2 -524 60 -617 85 -126 275 -197 440 -164 199 39 322 166 335 346 l6 74
-44 0 c-46 0 -120 -29 -152 -58 -31 -28 -54 -83 -65 -156 -9 -56 -17 -75 -43
-102 -59 -61 -154 -66 -230 -13 -54 38 -54 36 -54 674 0 575 1 591 20 625 59
100 233 100 287 0 16 -31 18 -60 18 -260 0 -207 -2 -228 -20 -258 -22 -35 -69
-68 -112 -77 -23 -5 -28 -12 -28 -36 0 -35 16 -37 105 -14 142 37 227 101 281
211 27 55 29 68 29 174 0 104 -3 120 -26 170 -37 77 -87 131 -156 167 -113 60
-240 77 -352 47z"/>
</g>
</svg>
